<svg xmlns="http://www.w3.org/2000/svg" viewBox="0 0 100.03 39.48"><defs><style>.cls-1{fill:#fffaed;}</style></defs><g id="Capa_2" data-name="Capa 2"><g id="Capa_1-2" data-name="Capa 1"><path class="cls-1" d="M0,0H15a10.28,10.28,0,0,1,6.74,2,6.37,6.37,0,0,1,2.4,5.18,6.2,6.2,0,0,1-.95,3.42A6.64,6.64,0,0,1,20.4,13a17.41,17.41,0,0,1-5.62,1.28,14,14,0,0,1,3.84,1.49,5.53,5.53,0,0,1,1.69,1.9,22.79,22.79,0,0,1,1.47,4.75A10.48,10.48,0,0,0,23,25.89a1.37,1.37,0,0,0,1.09.73c.41,0,.78-.3,1.13-.89a7.72,7.72,0,0,0,.63-3.15h1.33q-.36,6.66-4.91,6.66a4.17,4.17,0,0,1-2.47-.73,4.32,4.32,0,0,1-1.58-2.13,31.26,31.26,0,0,1-.92-5.54,10.42,10.42,0,0,0-.93-3.7,4.55,4.55,0,0,0-2-1.76,7.27,7.27,0,0,0-3.23-.66H8.83V26.09a1.23,1.23,0,0,0,.37,1,2.4,2.4,0,0,0,1.47.37h2.78V29H0V27.48H2.84a2.19,2.19,0,0,0,1.38-.37,1.28,1.28,0,0,0,.44-1V3a1.37,1.37,0,0,0-.45-1.12,2.11,2.11,0,0,0-1.37-.37H0ZM8.83,13.31h3.42A9.59,9.59,0,0,0,17.64,12q2-1.3,1.95-4.62a7.52,7.52,0,0,0-.73-3.62A3.91,3.91,0,0,0,16.93,2a14.5,14.5,0,0,0-4.7-.49,7.51,7.51,0,0,0-2.86.32,1.18,1.18,0,0,0-.54,1.1Z"/><path class="cls-1" d="M37.89,10.06a8.17,8.17,0,0,1,6.21,2.67,9.84,9.84,0,0,1,2.52,7,10.8,10.8,0,0,1-1.13,5.13,8.37,8.37,0,0,1-3.21,3.36,8.67,8.67,0,0,1-4.49,1.23,7.89,7.89,0,0,1-6-2.7,10,10,0,0,1-2.47-7,10,10,0,0,1,2.48-7A8,8,0,0,1,37.89,10.06Zm0,1.39a4.25,4.25,0,0,0-3.6,2q-1.41,2-1.41,6.27c0,2.91.47,5,1.4,6.38a4.24,4.24,0,0,0,3.61,2,4.35,4.35,0,0,0,3.71-2c.94-1.35,1.42-3.54,1.42-6.6q0-4.24-1.4-6.14A4.41,4.41,0,0,0,37.89,11.45Z"/><path class="cls-1" d="M54.11,3.13h1.32v7.48h5.93v1.8H55.43V24.17a3.41,3.41,0,0,0,.72,2.34,2.36,2.36,0,0,0,1.84.81,2.78,2.78,0,0,0,2.27-1.23A7.55,7.55,0,0,0,61.36,22h1.31A8.54,8.54,0,0,1,61,27.45a5.08,5.08,0,0,1-4,1.77A4.87,4.87,0,0,1,53.44,28a4.32,4.32,0,0,1-1.28-3.26V12.41H49V11a5.17,5.17,0,0,0,3.32-1.82A10.37,10.37,0,0,0,54.11,3.13Z"/><path class="cls-1" d="M64.58,10.61l6.6-.34v7.42a16.31,16.31,0,0,1,2.54-5.54,4.55,4.55,0,0,1,3.68-1.88,3.2,3.2,0,0,1,2.38.91,3.36,3.36,0,0,1,.89,2.44,2.83,2.83,0,0,1-.6,1.92,1.86,1.86,0,0,1-1.49.68,1.83,1.83,0,0,1-1.42-.58,2.25,2.25,0,0,1-.54-1.59,2.45,2.45,0,0,1,.31-1.21,2.23,2.23,0,0,0,.3-.61c0-.19-.13-.29-.37-.29a2.83,2.83,0,0,0-1.82.94,8.42,8.42,0,0,0-2.18,3.6,19.37,19.37,0,0,0-1.17,5.69v3.94a1.22,1.22,0,0,0,.47,1,2.78,2.78,0,0,0,1.6.35h2.33V29H64.7V27.48h1.82a2.24,2.24,0,0,0,1.39-.36,1.11,1.11,0,0,0,.47-.88V14.56a2.8,2.8,0,0,0-.57-2A2.08,2.08,0,0,0,66.19,12H64.58Z"/><path class="cls-1" d="M99.87,19.9H86.74c.06,2.8.59,4.77,1.56,5.91a5.43,5.43,0,0,0,4.29,1.94c2.56,0,4.61-1.45,6.17-4.36l1.27.55q-2.86,5.55-8.26,5.55a8.19,8.19,0,0,1-6.2-2.66A9.53,9.53,0,0,1,83.06,20a10.32,10.32,0,0,1,2.48-7.21,7.89,7.89,0,0,1,6.09-2.75,7.77,7.77,0,0,1,4.6,1.37,8.3,8.3,0,0,1,2.92,3.93A13.75,13.75,0,0,1,99.87,19.9ZM86.74,18.51h7.94a1.34,1.34,0,0,0,1.1-.48,2.6,2.6,0,0,0,.39-1.63,5.35,5.35,0,0,0-1.34-3.66,4.12,4.12,0,0,0-3.16-1.51,4.24,4.24,0,0,0-3.45,1.82A9,9,0,0,0,86.74,18.51Z"/><path class="cls-1" d="M5.72,31.15H12l.76,2.15-.51.19a3.87,3.87,0,0,0-.63-1.08,1.73,1.73,0,0,0-.73-.47,4.41,4.41,0,0,0-1.29-.14H7.82V35h.8a2.43,2.43,0,0,0,.91-.13.88.88,0,0,0,.42-.39,1.57,1.57,0,0,0,.15-.76v-.22h.57v3.6H10.1v-.32A1.56,1.56,0,0,0,10,36a.82.82,0,0,0-.39-.37,2.14,2.14,0,0,0-.86-.12H7.82v2.55a1.15,1.15,0,0,0,.07.49.5.5,0,0,0,.22.21,1.19,1.19,0,0,0,.51.07h.22v.5H5.72v-.5h.2a1.28,1.28,0,0,0,.52-.07.41.41,0,0,0,.21-.22A1.58,1.58,0,0,0,6.72,38V32.44a1.25,1.25,0,0,0-.07-.51.42.42,0,0,0-.19-.22A1,1,0,0,0,6,31.64H5.72Z"/><path class="cls-1" d="M13.28,34.51V34a4.58,4.58,0,0,0,.82-.16,4.61,4.61,0,0,0,.76-.33h.43v4.71a.74.74,0,0,0,.07.37.41.41,0,0,0,.19.18,1.28,1.28,0,0,0,.46.05h.28v.5h-3v-.5h.25a1.22,1.22,0,0,0,.52-.07.34.34,0,0,0,.19-.2,1.75,1.75,0,0,0,.06-.6V34.51Zm1.5-3.63a.69.69,0,0,1,.48.2.68.68,0,0,1,0,1,.69.69,0,0,1-1,0,.68.68,0,0,1,0-1A.7.7,0,0,1,14.78,30.88Z"/><path class="cls-1" d="M17.05,34.51V34a3.22,3.22,0,0,0,.76-.14,4.1,4.1,0,0,0,.76-.35H19v1.11a3.25,3.25,0,0,1,1-.81,2.13,2.13,0,0,1,1-.3,1.05,1.05,0,0,1,.69.21.6.6,0,0,1,.25.49.48.48,0,0,1-.17.38.54.54,0,0,1-.4.16.48.48,0,0,1-.18,0,1.19,1.19,0,0,1-.22-.13,1.09,1.09,0,0,0-.54-.21,1.14,1.14,0,0,0-.65.25,3.38,3.38,0,0,0-.7.62V38a2.19,2.19,0,0,0,0,.48.54.54,0,0,0,.13.22.46.46,0,0,0,.21.13,1.66,1.66,0,0,0,.46,0h.19v.5h-3v-.5h.25a1.19,1.19,0,0,0,.47-.06.56.56,0,0,0,.22-.24,1.49,1.49,0,0,0,.08-.57V34.51Z"/><path class="cls-1" d="M22.45,34.52V34a3.31,3.31,0,0,0,.77-.14,4,4,0,0,0,.75-.35h.44v1a5.64,5.64,0,0,1,1.05-.71,2.42,2.42,0,0,1,1.09-.28,1.94,1.94,0,0,1,.71.13,1.83,1.83,0,0,1,.55.33,1.53,1.53,0,0,1,.35.53,4.23,4.23,0,0,1,1.14-.77,2.7,2.7,0,0,1,1.07-.22,1.91,1.91,0,0,1,.91.21,1.45,1.45,0,0,1,.58.54,2,2,0,0,1,.18.95V38a4.91,4.91,0,0,0,0,.5.52.52,0,0,0,.13.21.44.44,0,0,0,.22.14,1.53,1.53,0,0,0,.45,0H33v.5H30.1v-.5a1.77,1.77,0,0,0,.65-.07.45.45,0,0,0,.23-.22,1.59,1.59,0,0,0,.07-.6V35.36a1.77,1.77,0,0,0-.09-.68.71.71,0,0,0-.31-.31,1.08,1.08,0,0,0-.56-.13,2.15,2.15,0,0,0-.88.22,3.61,3.61,0,0,0-1,.69V38a2.56,2.56,0,0,0,0,.53.5.5,0,0,0,.34.33,3.37,3.37,0,0,0,.59,0v.5H26.32v-.5h.16a1,1,0,0,0,.49-.08.56.56,0,0,0,.23-.25,1.67,1.67,0,0,0,.06-.56v-2.5a2.06,2.06,0,0,0-.09-.75.7.7,0,0,0-.32-.32,1.15,1.15,0,0,0-.57-.14,1.71,1.71,0,0,0-.77.19,4.14,4.14,0,0,0-1.06.72v3a.9.9,0,0,0,.07.39.5.5,0,0,0,.24.21,1,1,0,0,0,.43.07h.22v.5H22.46v-.5h.16a1.5,1.5,0,0,0,.53-.06.57.57,0,0,0,.27-.28,1.88,1.88,0,0,0,0-.55V34.52Z"/><path class="cls-1" d="M38.12,35.94V35.3a1.07,1.07,0,0,0-.37-.93,2,2,0,0,0-1.6-.2,1,1,0,0,0-.4.21,1,1,0,0,0-.22.32,4,4,0,0,0-.14.5c-.09.35-.28.53-.55.53a.51.51,0,0,1-.38-.16.61.61,0,0,1-.14-.42,1.19,1.19,0,0,1,.29-.76,2.12,2.12,0,0,1,.87-.62,3.73,3.73,0,0,1,1.4-.24,3.25,3.25,0,0,1,1.28.23,1.65,1.65,0,0,1,.79.67,2.3,2.3,0,0,1,.18,1.09v2.26a3.82,3.82,0,0,0,0,.62.62.62,0,0,0,.22.38.64.64,0,0,0,.42.13,2,2,0,0,0,.65-.13v.52a3.4,3.4,0,0,1-.88.14,1.83,1.83,0,0,1-.7-.12A1.24,1.24,0,0,1,38.4,39a1.2,1.2,0,0,1-.23-.54,5.18,5.18,0,0,1-1.27.77,3.15,3.15,0,0,1-1.16.23A1.94,1.94,0,0,1,34.43,39a1.34,1.34,0,0,1-.51-1,1.4,1.4,0,0,1,.19-.68,1.78,1.78,0,0,1,.56-.57,4,4,0,0,1,1.19-.43A18.89,18.89,0,0,1,38.12,35.94Zm0,.51q-1.36.19-1.68.27a3,3,0,0,0-.92.33,1,1,0,0,0-.39.38.82.82,0,0,0,0,.87.94.94,0,0,0,.37.34,1.2,1.2,0,0,0,.52.12,2.5,2.5,0,0,0,.86-.18,6.05,6.05,0,0,0,1.23-.71Z"/><path class="cls-1" d="M51.61,31.15H52l.75,2.73-.55.15a9.69,9.69,0,0,0-.67-1.27,2.84,2.84,0,0,0-.93-.83,2.61,2.61,0,0,0-1.24-.3,2.67,2.67,0,0,0-1.46.42,3.17,3.17,0,0,0-1.08,1.25,4,4,0,0,0-.41,1.85A4.11,4.11,0,0,0,46.86,37,3,3,0,0,0,48,38.31a2.86,2.86,0,0,0,1.55.45,3.26,3.26,0,0,0,1.59-.45,4.21,4.21,0,0,0,1.42-1.25l.47.32a4.82,4.82,0,0,1-.79.92,4.73,4.73,0,0,1-1.39.89,4.29,4.29,0,0,1-1.59.29,3.86,3.86,0,0,1-3.1-1.42,4.22,4.22,0,0,1-1-2.79,4.33,4.33,0,0,1,.54-2.16,4.11,4.11,0,0,1,1.51-1.53A4,4,0,0,1,49.29,31a3.57,3.57,0,0,1,1.1.16,3.7,3.7,0,0,1,1,.52Z"/><path class="cls-1" d="M56.93,33.53a3,3,0,0,1,1.5.36,2.55,2.55,0,0,1,1,1,3.33,3.33,0,0,1,.36,1.57,3.22,3.22,0,0,1-.37,1.57,2.62,2.62,0,0,1-1,1,3.1,3.1,0,0,1-1.54.36,2.56,2.56,0,0,1-2.13-.89A3.19,3.19,0,0,1,54,36.51,3.3,3.3,0,0,1,54.38,35a2.69,2.69,0,0,1,1-1.05A3,3,0,0,1,56.93,33.53Zm0,.57a1.46,1.46,0,0,0-1.13.53,2.78,2.78,0,0,0-.59,1.91,3,3,0,0,0,.5,1.85,1.5,1.5,0,0,0,1.23.56,1.6,1.6,0,0,0,.89-.26,1.84,1.84,0,0,0,.63-.85,3.52,3.52,0,0,0,.24-1.36,3.27,3.27,0,0,0-.26-1.36,1.55,1.55,0,0,0-.6-.75A1.6,1.6,0,0,0,56.88,34.1Z"/><path class="cls-1" d="M60.83,34.51V34a4.12,4.12,0,0,0,.78-.14,4.07,4.07,0,0,0,.74-.35h.43v1.12a5.43,5.43,0,0,1,1.32-.89,2.87,2.87,0,0,1,1.11-.23,2.08,2.08,0,0,1,.85.16,1.62,1.62,0,0,1,.6.44,1.44,1.44,0,0,1,.31.63,3.51,3.51,0,0,1,0,.65V38a1.64,1.64,0,0,0,.07.59.43.43,0,0,0,.22.2,3.17,3.17,0,0,0,.72.05v.5H65v-.5h.17a1.47,1.47,0,0,0,.57-.07.45.45,0,0,0,.22-.23A1.49,1.49,0,0,0,66,38V35.78a2.71,2.71,0,0,0-.11-.92.88.88,0,0,0-.37-.42,1.2,1.2,0,0,0-.66-.16,2.52,2.52,0,0,0-1,.24,3.75,3.75,0,0,0-1,.72V38a1.69,1.69,0,0,0,.07.61.45.45,0,0,0,.22.23,1.86,1.86,0,0,0,.56.05h.17v.5h-3v-.5H61a1.56,1.56,0,0,0,.59-.07.42.42,0,0,0,.23-.26,3.6,3.6,0,0,0,0-.65V34.51Z"/><path class="cls-1" d="M70.43,31.67h.42v2h1.74v.59H70.85V37.8a1.64,1.64,0,0,0,.08.64.64.64,0,0,0,.27.32.74.74,0,0,0,.42.12,2.14,2.14,0,0,0,1.23-.49V39a2.79,2.79,0,0,1-1.55.52,1.68,1.68,0,0,1-.81-.2,1.09,1.09,0,0,1-.5-.47,2.31,2.31,0,0,1-.13-.94V34.26h-1v-.49a2,2,0,0,0,.8-.35,1.74,1.74,0,0,0,.49-.61A3.93,3.93,0,0,0,70.43,31.67Z"/><path class="cls-1" d="M77.79,35.94V35.3a1.09,1.09,0,0,0-.36-.93,1.64,1.64,0,0,0-1-.28,1.73,1.73,0,0,0-.58.08,1,1,0,0,0-.39.21.84.84,0,0,0-.22.32s-.07.21-.15.5-.27.53-.54.53a.51.51,0,0,1-.38-.16.56.56,0,0,1-.14-.42,1.23,1.23,0,0,1,.28-.76,2.23,2.23,0,0,1,.88-.62,3.69,3.69,0,0,1,1.4-.24,3.25,3.25,0,0,1,1.28.23,1.65,1.65,0,0,1,.79.67,2.32,2.32,0,0,1,.17,1.09v2.26a3.82,3.82,0,0,0,0,.62.69.69,0,0,0,.23.38.64.64,0,0,0,.42.13,2,2,0,0,0,.65-.13v.52a3.4,3.4,0,0,1-.88.14,1.79,1.79,0,0,1-.7-.12,1.17,1.17,0,0,1-.47-.34,1.1,1.1,0,0,1-.23-.54,5.21,5.21,0,0,1-1.28.77,3.1,3.1,0,0,1-1.15.23A1.92,1.92,0,0,1,74.11,39a1.34,1.34,0,0,1-.51-1,1.3,1.3,0,0,1,.19-.68,1.78,1.78,0,0,1,.56-.57,3.85,3.85,0,0,1,1.19-.43A18.35,18.35,0,0,1,77.79,35.94Zm0,.51c-.91.13-1.47.22-1.69.27a3,3,0,0,0-.91.33,1.05,1.05,0,0,0-.4.38.89.89,0,0,0-.11.43.8.8,0,0,0,.13.44.94.94,0,0,0,.37.34,1.13,1.13,0,0,0,.51.12,2.5,2.5,0,0,0,.87-.18,6.05,6.05,0,0,0,1.23-.71Z"/><path class="cls-1" d="M80.56,31.7v-.48a3.68,3.68,0,0,0,.75-.14,5.35,5.35,0,0,0,.81-.36h.43v3.59a4,4,0,0,1,1.06-.59,3.3,3.3,0,0,1,1.12-.19,2.27,2.27,0,0,1,1.21.35,2.45,2.45,0,0,1,.88,1,3.41,3.41,0,0,1,.32,1.52,3.25,3.25,0,0,1-.81,2.26,2.44,2.44,0,0,1-1.89.82,2.59,2.59,0,0,1-1.22-.29,2.7,2.7,0,0,1-.78-.65l-.32.8h-.55V31.7Zm2,3.19v2.26a2.68,2.68,0,0,0,.07.75,1.19,1.19,0,0,0,.32.44,1.61,1.61,0,0,0,.56.35,1.66,1.66,0,0,0,.66.14,1.79,1.79,0,0,0,1-.28,1.84,1.84,0,0,0,.67-.82A3,3,0,0,0,86,36.44a2.68,2.68,0,0,0-.52-1.71,1.41,1.41,0,0,0-1.17-.52,2.24,2.24,0,0,0-.79.14A4.84,4.84,0,0,0,82.55,34.89Z"/><path class="cls-1" d="M88.17,31.7v-.48a3.62,3.62,0,0,0,1.56-.5h.44V38a1.75,1.75,0,0,0,0,.58.49.49,0,0,0,.23.24,1.38,1.38,0,0,0,.56.07h.19v.5h-3v-.5h.31a.94.94,0,0,0,.43-.08.49.49,0,0,0,.21-.24,2,2,0,0,0,.06-.61V31.7Z"/><path class="cls-1" d="M97,37.82l.38.31a5.64,5.64,0,0,1-.83.81,2.82,2.82,0,0,1-.77.42,2.55,2.55,0,0,1-.83.12,2.91,2.91,0,0,1-1.47-.35,2.94,2.94,0,0,1-1.07-1.06A3.16,3.16,0,0,1,92,36.53,3.21,3.21,0,0,1,92.39,35a2.7,2.7,0,0,1,1-1,2.92,2.92,0,0,1,1.49-.38,2.75,2.75,0,0,1,1.09.2,1.92,1.92,0,0,1,.79.59,2.42,2.42,0,0,1,.47.9,2.78,2.78,0,0,1,.09.78H93.17c0,.19,0,.33,0,.43a3.27,3.27,0,0,0,.25,1.32,1.92,1.92,0,0,0,.69.85,1.74,1.74,0,0,0,1,.27,2,2,0,0,0,.89-.21A4.12,4.12,0,0,0,97,37.82Zm-.75-2.37a2.21,2.21,0,0,0-.25-.8,1.15,1.15,0,0,0-.46-.41,1.47,1.47,0,0,0-.67-.15,1.65,1.65,0,0,0-.69.15,1.58,1.58,0,0,0-.54.42,2.65,2.65,0,0,0-.37.79Z"/></g></g></svg>